<svg width="100" height="100" viewBox="0 0 100 100" fill="none" xmlns="http://www.w3.org/2000/svg">
<g id="frame-2">
<line id="Line 1" x1="5" y1="56.5" x2="95" y2="56.5" stroke="#8AFBD3"/>
<path id="Alexander Walld&#195;&#169;n" d="M3.85113 54C3.79247 54 3.74113 53.978 3.69713 53.934C3.65313 53.89 3.63113 53.8387 3.63113 53.78C3.63113 53.7433 3.6348 53.703 3.64213 53.659L6.37013 46.542C6.39947 46.4687 6.4398 46.41 6.49113 46.366C6.54247 46.322 6.61947 46.3 6.72213 46.3H7.47013C7.56547 46.3 7.6388 46.322 7.69013 46.366C7.7488 46.41 7.7928 46.4687 7.82213 46.542L10.5391 53.659C10.5538 53.703 10.5611 53.7433 10.5611 53.78C10.5611 53.8387 10.5391 53.89 10.4951 53.934C10.4511 53.978 10.3998 54 10.3411 54H9.78013C9.69213 54 9.62613 53.978 9.58213 53.934C9.54547 53.89 9.5198 53.8497 9.50513 53.813L8.90013 52.251H5.29213L4.68713 53.813C4.6798 53.8497 4.65413 53.89 4.61013 53.934C4.56613 53.978 4.50013 54 4.41213 54H3.85113ZM5.61113 51.305H8.58113L7.09613 47.4L5.61113 51.305ZM11.8583 54C11.7849 54 11.7226 53.978 11.6713 53.934C11.6273 53.8827 11.6053 53.8203 11.6053 53.747V46.443C11.6053 46.3697 11.6273 46.311 11.6713 46.267C11.7226 46.2157 11.7849 46.19 11.8583 46.19H12.3753C12.4559 46.19 12.5183 46.2157 12.5623 46.267C12.6063 46.311 12.6283 46.3697 12.6283 46.443V53.747C12.6283 53.8203 12.6063 53.8827 12.5623 53.934C12.5183 53.978 12.4559 54 12.3753 54H11.8583ZM16.5461 54.11C15.7907 54.11 15.1894 53.879 14.7421 53.417C14.2947 52.9477 14.0491 52.3097 14.0051 51.503C13.9977 51.4077 13.9941 51.2867 13.9941 51.14C13.9941 50.986 13.9977 50.8613 14.0051 50.766C14.0344 50.2453 14.1554 49.7907 14.3681 49.402C14.5807 49.006 14.8704 48.7017 15.2371 48.489C15.6111 48.2763 16.0474 48.17 16.5461 48.17C17.1034 48.17 17.5691 48.2873 17.9431 48.522C18.3244 48.7567 18.6141 49.0903 18.8121 49.523C19.0101 49.9557 19.1091 50.4617 19.1091 51.041V51.228C19.1091 51.3087 19.0834 51.371 19.0321 51.415C18.9881 51.459 18.9294 51.481 18.8561 51.481H15.0501C15.0501 51.4883 15.0501 51.503 15.0501 51.525C15.0501 51.547 15.0501 51.5653 15.0501 51.58C15.0647 51.8807 15.1307 52.163 15.2481 52.427C15.3654 52.6837 15.5341 52.8927 15.7541 53.054C15.9741 53.2153 16.2381 53.296 16.5461 53.296C16.8101 53.296 17.0301 53.2557 17.2061 53.175C17.3821 53.0943 17.5251 53.0063 17.6351 52.911C17.7451 52.8083 17.8184 52.7313 17.8551 52.68C17.9211 52.5847 17.9724 52.5297 18.0091 52.515C18.0457 52.493 18.1044 52.482 18.1851 52.482H18.7131C18.7864 52.482 18.8451 52.504 18.8891 52.548C18.9404 52.5847 18.9624 52.6397 18.9551 52.713C18.9477 52.823 18.8891 52.9587 18.7791 53.12C18.6691 53.274 18.5114 53.428 18.3061 53.582C18.1007 53.736 17.8514 53.8643 17.5581 53.967C17.2647 54.0623 16.9274 54.11 16.5461 54.11ZM15.0501 50.722H18.0641V50.689C18.0641 50.359 18.0017 50.0657 17.8771 49.809C17.7597 49.5523 17.5874 49.3507 17.3601 49.204C17.1327 49.05 16.8614 48.973 16.5461 48.973C16.2307 48.973 15.9594 49.05 15.7321 49.204C15.5121 49.3507 15.3434 49.5523 15.2261 49.809C15.1087 50.0657 15.0501 50.359 15.0501 50.689V50.722ZM20.0422 54C19.9835 54 19.9285 53.978 19.8772 53.934C19.8332 53.89 19.8112 53.835 19.8112 53.769C19.8112 53.747 19.8149 53.7213 19.8222 53.692C19.8369 53.6553 19.8589 53.615 19.8882 53.571L21.8022 51.074L20.0092 48.709C19.9799 48.665 19.9579 48.6283 19.9432 48.599C19.9359 48.5697 19.9322 48.5403 19.9322 48.511C19.9322 48.445 19.9542 48.39 19.9982 48.346C20.0422 48.302 20.0972 48.28 20.1632 48.28H20.7242C20.8049 48.28 20.8635 48.302 20.9002 48.346C20.9442 48.3827 20.9809 48.4193 21.0102 48.456L22.4732 50.359L23.9362 48.467C23.9655 48.4303 23.9985 48.39 24.0352 48.346C24.0792 48.302 24.1415 48.28 24.2222 48.28H24.7612C24.8272 48.28 24.8822 48.302 24.9262 48.346C24.9702 48.39 24.9922 48.445 24.9922 48.511C24.9922 48.5403 24.9849 48.5697 24.9702 48.599C24.9629 48.6283 24.9445 48.665 24.9152 48.709L23.1002 51.096L25.0142 53.571C25.0435 53.615 25.0619 53.6517 25.0692 53.681C25.0839 53.7103 25.0912 53.7397 25.0912 53.769C25.0912 53.835 25.0692 53.89 25.0252 53.934C24.9812 53.978 24.9262 54 24.8602 54H24.2772C24.2039 54 24.1452 53.9817 24.1012 53.945C24.0572 53.9083 24.0205 53.8717 23.9912 53.835L22.4402 51.822L20.8892 53.835C20.8599 53.8643 20.8232 53.901 20.7792 53.945C20.7425 53.9817 20.6839 54 20.6032 54H20.0422ZM27.7664 54.11C27.3998 54.11 27.0661 54.0367 26.7654 53.89C26.4648 53.7433 26.2228 53.5453 26.0394 53.296C25.8561 53.0467 25.7644 52.7643 25.7644 52.449C25.7644 51.943 25.9698 51.5397 26.3804 51.239C26.7911 50.9383 27.3264 50.7403 27.9864 50.645L29.6254 50.414V50.095C29.6254 49.743 29.5228 49.468 29.3174 49.27C29.1194 49.072 28.7931 48.973 28.3384 48.973C28.0084 48.973 27.7408 49.039 27.5354 49.171C27.3374 49.303 27.1981 49.4717 27.1174 49.677C27.0734 49.787 26.9964 49.842 26.8864 49.842H26.3914C26.3108 49.842 26.2484 49.82 26.2044 49.776C26.1678 49.7247 26.1494 49.666 26.1494 49.6C26.1494 49.49 26.1898 49.3543 26.2704 49.193C26.3584 49.0317 26.4904 48.874 26.6664 48.72C26.8424 48.566 27.0661 48.4377 27.3374 48.335C27.6161 48.225 27.9534 48.17 28.3494 48.17C28.7894 48.17 29.1598 48.2287 29.4604 48.346C29.7611 48.456 29.9958 48.6063 30.1644 48.797C30.3404 48.9877 30.4651 49.204 30.5384 49.446C30.6191 49.688 30.6594 49.9337 30.6594 50.183V53.747C30.6594 53.8203 30.6338 53.8827 30.5824 53.934C30.5384 53.978 30.4798 54 30.4064 54H29.9004C29.8198 54 29.7574 53.978 29.7134 53.934C29.6694 53.8827 29.6474 53.8203 29.6474 53.747V53.274C29.5521 53.406 29.4238 53.538 29.2624 53.67C29.1011 53.7947 28.8994 53.901 28.6574 53.989C28.4154 54.0697 28.1184 54.11 27.7664 54.11ZM27.9974 53.285C28.2981 53.285 28.5731 53.2227 28.8224 53.098C29.0718 52.966 29.2661 52.7643 29.4054 52.493C29.5521 52.2217 29.6254 51.8807 29.6254 51.47V51.162L28.3494 51.349C27.8288 51.4223 27.4364 51.547 27.1724 51.723C26.9084 51.8917 26.7764 52.108 26.7764 52.372C26.7764 52.5773 26.8351 52.7497 26.9524 52.889C27.0771 53.021 27.2311 53.12 27.4144 53.186C27.6051 53.252 27.7994 53.285 27.9974 53.285ZM32.4938 54C32.4204 54 32.3581 53.978 32.3068 53.934C32.2628 53.8827 32.2408 53.8203 32.2408 53.747V48.533C32.2408 48.4597 32.2628 48.401 32.3068 48.357C32.3581 48.3057 32.4204 48.28 32.4938 48.28H33.0108C33.0841 48.28 33.1428 48.3057 33.1868 48.357C33.2381 48.401 33.2638 48.4597 33.2638 48.533V49.017C33.4544 48.7677 33.6928 48.566 33.9788 48.412C34.2721 48.2507 34.6461 48.17 35.1008 48.17C35.5774 48.17 35.9808 48.2763 36.3108 48.489C36.6481 48.6943 36.9011 48.984 37.0698 49.358C37.2384 49.7247 37.3228 50.1537 37.3228 50.645V53.747C37.3228 53.8203 37.3008 53.8827 37.2568 53.934C37.2128 53.978 37.1541 54 37.0808 54H36.5308C36.4574 54 36.3951 53.978 36.3438 53.934C36.2998 53.8827 36.2778 53.8203 36.2778 53.747V50.7C36.2778 50.1867 36.1531 49.787 35.9038 49.501C35.6544 49.2077 35.2878 49.061 34.8038 49.061C34.3491 49.061 33.9824 49.2077 33.7038 49.501C33.4324 49.787 33.2968 50.1867 33.2968 50.7V53.747C33.2968 53.8203 33.2711 53.8827 33.2198 53.934C33.1758 53.978 33.1171 54 33.0438 54H32.4938ZM41.0017 54.11C40.5983 54.11 40.25 54.0403 39.9567 53.901C39.6633 53.7543 39.4213 53.56 39.2307 53.318C39.0473 53.0687 38.908 52.7863 38.8127 52.471C38.7247 52.1557 38.6733 51.822 38.6587 51.47C38.6513 51.3527 38.6477 51.2427 38.6477 51.14C38.6477 51.0373 38.6513 50.9273 38.6587 50.81C38.6733 50.4653 38.7247 50.1353 38.8127 49.82C38.908 49.5047 39.0473 49.2223 39.2307 48.973C39.4213 48.7237 39.6633 48.5293 39.9567 48.39C40.25 48.2433 40.5983 48.17 41.0017 48.17C41.4343 48.17 41.7937 48.247 42.0797 48.401C42.3657 48.555 42.6003 48.7457 42.7837 48.973V46.443C42.7837 46.3697 42.8057 46.311 42.8497 46.267C42.901 46.2157 42.9633 46.19 43.0367 46.19H43.5647C43.638 46.19 43.6967 46.2157 43.7407 46.267C43.792 46.311 43.8177 46.3697 43.8177 46.443V53.747C43.8177 53.8203 43.792 53.8827 43.7407 53.934C43.6967 53.978 43.638 54 43.5647 54H43.0697C42.989 54 42.9267 53.978 42.8827 53.934C42.8387 53.8827 42.8167 53.8203 42.8167 53.747V53.285C42.6333 53.5197 42.395 53.7177 42.1017 53.879C41.8083 54.033 41.4417 54.11 41.0017 54.11ZM41.2327 53.219C41.5993 53.219 41.8927 53.1347 42.1127 52.966C42.3327 52.7973 42.4977 52.5847 42.6077 52.328C42.7177 52.064 42.7763 51.7963 42.7837 51.525C42.791 51.4077 42.7947 51.2683 42.7947 51.107C42.7947 50.9383 42.791 50.7953 42.7837 50.678C42.7763 50.4213 42.714 50.1683 42.5967 49.919C42.4867 49.6697 42.318 49.4643 42.0907 49.303C41.8707 49.1417 41.5847 49.061 41.2327 49.061C40.8587 49.061 40.5617 49.1453 40.3417 49.314C40.1217 49.4753 39.964 49.6917 39.8687 49.963C39.7733 50.227 39.7183 50.513 39.7037 50.821C39.6963 51.0337 39.6963 51.2463 39.7037 51.459C39.7183 51.767 39.7733 52.0567 39.8687 52.328C39.964 52.592 40.1217 52.8083 40.3417 52.977C40.5617 53.1383 40.8587 53.219 41.2327 53.219ZM47.7306 54.11C46.9753 54.11 46.374 53.879 45.9266 53.417C45.4793 52.9477 45.2336 52.3097 45.1896 51.503C45.1823 51.4077 45.1786 51.2867 45.1786 51.14C45.1786 50.986 45.1823 50.8613 45.1896 50.766C45.219 50.2453 45.34 49.7907 45.5526 49.402C45.7653 49.006 46.055 48.7017 46.4216 48.489C46.7956 48.2763 47.232 48.17 47.7306 48.17C48.288 48.17 48.7536 48.2873 49.1276 48.522C49.509 48.7567 49.7986 49.0903 49.9966 49.523C50.1946 49.9557 50.2936 50.4617 50.2936 51.041V51.228C50.2936 51.3087 50.268 51.371 50.2166 51.415C50.1726 51.459 50.114 51.481 50.0406 51.481H46.2346C46.2346 51.4883 46.2346 51.503 46.2346 51.525C46.2346 51.547 46.2346 51.5653 46.2346 51.58C46.2493 51.8807 46.3153 52.163 46.4326 52.427C46.55 52.6837 46.7186 52.8927 46.9386 53.054C47.1586 53.2153 47.4226 53.296 47.7306 53.296C47.9946 53.296 48.2146 53.2557 48.3906 53.175C48.5666 53.0943 48.7096 53.0063 48.8196 52.911C48.9296 52.8083 49.003 52.7313 49.0396 52.68C49.1056 52.5847 49.157 52.5297 49.1936 52.515C49.2303 52.493 49.289 52.482 49.3696 52.482H49.8976C49.971 52.482 50.0296 52.504 50.0736 52.548C50.125 52.5847 50.147 52.6397 50.1396 52.713C50.1323 52.823 50.0736 52.9587 49.9636 53.12C49.8536 53.274 49.696 53.428 49.4906 53.582C49.2853 53.736 49.036 53.8643 48.7426 53.967C48.4493 54.0623 48.112 54.11 47.7306 54.11ZM46.2346 50.722H49.2486V50.689C49.2486 50.359 49.1863 50.0657 49.0616 49.809C48.9443 49.5523 48.772 49.3507 48.5446 49.204C48.3173 49.05 48.046 48.973 47.7306 48.973C47.4153 48.973 47.144 49.05 46.9166 49.204C46.6966 49.3507 46.528 49.5523 46.4106 49.809C46.2933 50.0657 46.2346 50.359 46.2346 50.689V50.722ZM51.8619 54C51.7886 54 51.7263 53.978 51.6749 53.934C51.6309 53.8827 51.6089 53.8203 51.6089 53.747V48.544C51.6089 48.4707 51.6309 48.4083 51.6749 48.357C51.7263 48.3057 51.7886 48.28 51.8619 48.28H52.3679C52.4413 48.28 52.5036 48.3057 52.5549 48.357C52.6063 48.4083 52.6319 48.4707 52.6319 48.544V49.028C52.7786 48.7787 52.9803 48.5917 53.2369 48.467C53.4936 48.3423 53.8016 48.28 54.1609 48.28H54.6009C54.6743 48.28 54.7329 48.3057 54.7769 48.357C54.8209 48.401 54.8429 48.4597 54.8429 48.533V48.984C54.8429 49.0573 54.8209 49.116 54.7769 49.16C54.7329 49.204 54.6743 49.226 54.6009 49.226H53.9409C53.5449 49.226 53.2333 49.3433 53.0059 49.578C52.7786 49.8053 52.6649 50.117 52.6649 50.513V53.747C52.6649 53.8203 52.6393 53.8827 52.5879 53.934C52.5366 53.978 52.4743 54 52.4009 54H51.8619ZM59.4952 54C59.3999 54 59.3229 53.9743 59.2642 53.923C59.2129 53.8717 59.1762 53.7983 59.1542 53.703L57.7352 46.641C57.7279 46.6117 57.7242 46.586 57.7242 46.564C57.7242 46.542 57.7242 46.5273 57.7242 46.52C57.7242 46.4613 57.7462 46.41 57.7902 46.366C57.8342 46.322 57.8856 46.3 57.9442 46.3H58.5162C58.6702 46.3 58.7582 46.3623 58.7802 46.487L59.9022 52.163L61.0902 48.269C61.1122 48.203 61.1489 48.1443 61.2002 48.093C61.2589 48.0343 61.3396 48.005 61.4422 48.005H61.8492C61.9592 48.005 62.0399 48.0343 62.0912 48.093C62.1426 48.1443 62.1756 48.203 62.1902 48.269L63.3892 52.163L64.5002 46.487C64.5222 46.3623 64.6139 46.3 64.7752 46.3H65.3472C65.4059 46.3 65.4572 46.322 65.5012 46.366C65.5452 46.41 65.5672 46.4613 65.5672 46.52C65.5672 46.5273 65.5636 46.542 65.5562 46.564C65.5562 46.586 65.5562 46.6117 65.5562 46.641L64.1372 53.703C64.1152 53.7983 64.0749 53.8717 64.0162 53.923C63.9649 53.9743 63.8916 54 63.7962 54H63.3672C63.2646 54 63.1839 53.9743 63.1252 53.923C63.0666 53.8717 63.0262 53.8057 63.0042 53.725L61.6402 49.534L60.2872 53.725C60.2579 53.8057 60.2139 53.8717 60.1552 53.923C60.1039 53.9743 60.0269 54 59.9242 54H59.4952ZM68.2108 54.11C67.8441 54.11 67.5104 54.0367 67.2098 53.89C66.9091 53.7433 66.6671 53.5453 66.4838 53.296C66.3004 53.0467 66.2088 52.7643 66.2088 52.449C66.2088 51.943 66.4141 51.5397 66.8248 51.239C67.2354 50.9383 67.7708 50.7403 68.4308 50.645L70.0698 50.414V50.095C70.0698 49.743 69.9671 49.468 69.7618 49.27C69.5638 49.072 69.2374 48.973 68.7828 48.973C68.4528 48.973 68.1851 49.039 67.9798 49.171C67.7818 49.303 67.6424 49.4717 67.5618 49.677C67.5178 49.787 67.4408 49.842 67.3308 49.842H66.8358C66.7551 49.842 66.6928 49.82 66.6488 49.776C66.6121 49.7247 66.5938 49.666 66.5938 49.6C66.5938 49.49 66.6341 49.3543 66.7148 49.193C66.8028 49.0317 66.9348 48.874 67.1108 48.72C67.2868 48.566 67.5104 48.4377 67.7818 48.335C68.0604 48.225 68.3978 48.17 68.7938 48.17C69.2338 48.17 69.6041 48.2287 69.9048 48.346C70.2054 48.456 70.4401 48.6063 70.6088 48.797C70.7848 48.9877 70.9094 49.204 70.9828 49.446C71.0634 49.688 71.1038 49.9337 71.1038 50.183V53.747C71.1038 53.8203 71.0781 53.8827 71.0268 53.934C70.9828 53.978 70.9241 54 70.8508 54H70.3448C70.2641 54 70.2018 53.978 70.1578 53.934C70.1138 53.8827 70.0918 53.8203 70.0918 53.747V53.274C69.9964 53.406 69.8681 53.538 69.7068 53.67C69.5454 53.7947 69.3438 53.901 69.1018 53.989C68.8598 54.0697 68.5628 54.11 68.2108 54.11ZM68.4418 53.285C68.7424 53.285 69.0174 53.2227 69.2668 53.098C69.5161 52.966 69.7104 52.7643 69.8498 52.493C69.9964 52.2217 70.0698 51.8807 70.0698 51.47V51.162L68.7938 51.349C68.2731 51.4223 67.8808 51.547 67.6168 51.723C67.3528 51.8917 67.2208 52.108 67.2208 52.372C67.2208 52.5773 67.2794 52.7497 67.3968 52.889C67.5214 53.021 67.6754 53.12 67.8588 53.186C68.0494 53.252 68.2438 53.285 68.4418 53.285ZM72.9491 54C72.8758 54 72.8134 53.978 72.7621 53.934C72.7181 53.8827 72.6961 53.8203 72.6961 53.747V46.443C72.6961 46.3697 72.7181 46.311 72.7621 46.267C72.8134 46.2157 72.8758 46.19 72.9491 46.19H73.4661C73.5468 46.19 73.6091 46.2157 73.6531 46.267C73.6971 46.311 73.7191 46.3697 73.7191 46.443V53.747C73.7191 53.8203 73.6971 53.8827 73.6531 53.934C73.6091 53.978 73.5468 54 73.4661 54H72.9491ZM75.6239 54C75.5506 54 75.4882 53.978 75.4369 53.934C75.3929 53.8827 75.3709 53.8203 75.3709 53.747V46.443C75.3709 46.3697 75.3929 46.311 75.4369 46.267C75.4882 46.2157 75.5506 46.19 75.6239 46.19H76.1409C76.2216 46.19 76.2839 46.2157 76.3279 46.267C76.3719 46.311 76.3939 46.3697 76.3939 46.443V53.747C76.3939 53.8203 76.3719 53.8827 76.3279 53.934C76.2839 53.978 76.2216 54 76.1409 54H75.6239ZM80.1247 54.11C79.7214 54.11 79.373 54.0403 79.0797 53.901C78.7864 53.7543 78.5444 53.56 78.3537 53.318C78.1704 53.0687 78.031 52.7863 77.9357 52.471C77.8477 52.1557 77.7964 51.822 77.7817 51.47C77.7744 51.3527 77.7707 51.2427 77.7707 51.14C77.7707 51.0373 77.7744 50.9273 77.7817 50.81C77.7964 50.4653 77.8477 50.1353 77.9357 49.82C78.031 49.5047 78.1704 49.2223 78.3537 48.973C78.5444 48.7237 78.7864 48.5293 79.0797 48.39C79.373 48.2433 79.7214 48.17 80.1247 48.17C80.5574 48.17 80.9167 48.247 81.2027 48.401C81.4887 48.555 81.7234 48.7457 81.9067 48.973V46.443C81.9067 46.3697 81.9287 46.311 81.9727 46.267C82.024 46.2157 82.0864 46.19 82.1597 46.19H82.6877C82.761 46.19 82.8197 46.2157 82.8637 46.267C82.915 46.311 82.9407 46.3697 82.9407 46.443V53.747C82.9407 53.8203 82.915 53.8827 82.8637 53.934C82.8197 53.978 82.761 54 82.6877 54H82.1927C82.112 54 82.0497 53.978 82.0057 53.934C81.9617 53.8827 81.9397 53.8203 81.9397 53.747V53.285C81.7564 53.5197 81.518 53.7177 81.2247 53.879C80.9314 54.033 80.5647 54.11 80.1247 54.11ZM80.3557 53.219C80.7224 53.219 81.0157 53.1347 81.2357 52.966C81.4557 52.7973 81.6207 52.5847 81.7307 52.328C81.8407 52.064 81.8994 51.7963 81.9067 51.525C81.914 51.4077 81.9177 51.2683 81.9177 51.107C81.9177 50.9383 81.914 50.7953 81.9067 50.678C81.8994 50.4213 81.837 50.1683 81.7197 49.919C81.6097 49.6697 81.441 49.4643 81.2137 49.303C80.9937 49.1417 80.7077 49.061 80.3557 49.061C79.9817 49.061 79.6847 49.1453 79.4647 49.314C79.2447 49.4753 79.087 49.6917 78.9917 49.963C78.8964 50.227 78.8414 50.513 78.8267 50.821C78.8194 51.0337 78.8194 51.2463 78.8267 51.459C78.8414 51.767 78.8964 52.0567 78.9917 52.328C79.087 52.592 79.2447 52.8083 79.4647 52.977C79.6847 53.1383 79.9817 53.219 80.3557 53.219ZM86.8537 54.11C86.0984 54.11 85.497 53.879 85.0497 53.417C84.6024 52.9477 84.3567 52.3097 84.3127 51.503C84.3054 51.4077 84.3017 51.2867 84.3017 51.14C84.3017 50.986 84.3054 50.8613 84.3127 50.766C84.342 50.2453 84.463 49.7907 84.6757 49.402C84.8884 49.006 85.178 48.7017 85.5447 48.489C85.9187 48.2763 86.355 48.17 86.8537 48.17C87.411 48.17 87.8767 48.2873 88.2507 48.522C88.632 48.7567 88.9217 49.0903 89.1197 49.523C89.3177 49.9557 89.4167 50.4617 89.4167 51.041V51.228C89.4167 51.3087 89.391 51.371 89.3397 51.415C89.2957 51.459 89.237 51.481 89.1637 51.481H85.3577C85.3577 51.4883 85.3577 51.503 85.3577 51.525C85.3577 51.547 85.3577 51.5653 85.3577 51.58C85.3724 51.8807 85.4384 52.163 85.5557 52.427C85.673 52.6837 85.8417 52.8927 86.0617 53.054C86.2817 53.2153 86.5457 53.296 86.8537 53.296C87.1177 53.296 87.3377 53.2557 87.5137 53.175C87.6897 53.0943 87.8327 53.0063 87.9427 52.911C88.0527 52.8083 88.126 52.7313 88.1627 52.68C88.2287 52.5847 88.28 52.5297 88.3167 52.515C88.3534 52.493 88.412 52.482 88.4927 52.482H89.0207C89.094 52.482 89.1527 52.504 89.1967 52.548C89.248 52.5847 89.27 52.6397 89.2627 52.713C89.2554 52.823 89.1967 52.9587 89.0867 53.12C88.9767 53.274 88.819 53.428 88.6137 53.582C88.4084 53.736 88.159 53.8643 87.8657 53.967C87.5724 54.0623 87.235 54.11 86.8537 54.11ZM85.3577 50.722H88.3717V50.689C88.3717 50.359 88.3094 50.0657 88.1847 49.809C88.0674 49.5523 87.895 49.3507 87.6677 49.204C87.4404 49.05 87.169 48.973 86.8537 48.973C86.5384 48.973 86.267 49.05 86.0397 49.204C85.8197 49.3507 85.651 49.5523 85.5337 49.809C85.4164 50.0657 85.3577 50.359 85.3577 50.689V50.722ZM86.5567 47.455C86.4394 47.455 86.3807 47.3963 86.3807 47.279C86.3807 47.2203 86.399 47.1727 86.4357 47.136L87.2607 46.146C87.3267 46.0653 87.3854 46.014 87.4367 45.992C87.488 45.9627 87.565 45.948 87.6677 45.948H88.4157C88.555 45.948 88.6247 46.0177 88.6247 46.157C88.6247 46.2083 88.6064 46.2523 88.5697 46.289L87.2937 47.334C87.235 47.3853 87.18 47.4183 87.1287 47.433C87.0774 47.4477 87.0114 47.455 86.9307 47.455H86.5567ZM90.985 54C90.9116 54 90.8493 53.978 90.798 53.934C90.754 53.8827 90.732 53.8203 90.732 53.747V48.533C90.732 48.4597 90.754 48.401 90.798 48.357C90.8493 48.3057 90.9116 48.28 90.985 48.28H91.502C91.5753 48.28 91.634 48.3057 91.678 48.357C91.7293 48.401 91.755 48.4597 91.755 48.533V49.017C91.9456 48.7677 92.184 48.566 92.47 48.412C92.7633 48.2507 93.1373 48.17 93.592 48.17C94.0686 48.17 94.472 48.2763 94.802 48.489C95.1393 48.6943 95.3923 48.984 95.561 49.358C95.7296 49.7247 95.814 50.1537 95.814 50.645V53.747C95.814 53.8203 95.792 53.8827 95.748 53.934C95.704 53.978 95.6453 54 95.572 54H95.022C94.9486 54 94.8863 53.978 94.835 53.934C94.791 53.8827 94.769 53.8203 94.769 53.747V50.7C94.769 50.1867 94.6443 49.787 94.395 49.501C94.1456 49.2077 93.779 49.061 93.295 49.061C92.8403 49.061 92.4736 49.2077 92.195 49.501C91.9236 49.787 91.788 50.1867 91.788 50.7V53.747C91.788 53.8203 91.7623 53.8827 91.711 53.934C91.667 53.978 91.6083 54 91.535 54H90.985Z" fill="#8AFBD3"/>
</g>
</svg>
