<svg width="100" height="100" viewBox="0 0 100 100" fill="none" xmlns="http://www.w3.org/2000/svg">
<g id="Frame 1" clip-path="url(#clip0_1_3)">
<g id="circle">
<circle id="circle_2" cx="50" cy="50" r="49.5" stroke="#8AFBD3"/>
</g>
<g id="letters">
<path id="w" d="M49.25 83C48.8167 83 48.4667 82.8833 48.2 82.65C47.9667 82.4167 47.8 82.0833 47.7 81.65L41.25 49.55C41.2167 49.4167 41.2 49.3 41.2 49.2C41.2 49.1 41.2 49.0333 41.2 49C41.2 48.7333 41.3 48.5 41.5 48.3C41.7 48.1 41.9333 48 42.2 48H44.8C45.5 48 45.9 48.2833 46 48.85L51.1 74.65L56.5 56.95C56.6 56.65 56.7667 56.3833 57 56.15C57.2667 55.8833 57.6333 55.75 58.1 55.75H59.95C60.45 55.75 60.8167 55.8833 61.05 56.15C61.2833 56.3833 61.4333 56.65 61.5 56.95L66.95 74.65L72 48.85C72.1 48.2833 72.5167 48 73.25 48H75.85C76.1167 48 76.35 48.1 76.55 48.3C76.75 48.5 76.85 48.7333 76.85 49C76.85 49.0333 76.8333 49.1 76.8 49.2C76.8 49.3 76.8 49.4167 76.8 49.55L70.35 81.65C70.25 82.0833 70.0667 82.4167 69.8 82.65C69.5667 82.8833 69.2333 83 68.8 83H66.85C66.3833 83 66.0167 82.8833 65.75 82.65C65.4833 82.4167 65.3 82.1167 65.2 81.75L59 62.7L52.85 81.75C52.7167 82.1167 52.5167 82.4167 52.25 82.65C52.0167 82.8833 51.6667 83 51.2 83H49.25Z" fill="#8AFBD3"/>
<path id="a" d="M23 53C22.7333 53 22.5 52.9 22.3 52.7C22.1 52.5 22 52.2667 22 52C22 51.8333 22.0167 51.65 22.05 51.45L34.45 19.1C34.5833 18.7667 34.7667 18.5 35 18.3C35.2333 18.1 35.5833 18 36.05 18H39.45C39.8833 18 40.2167 18.1 40.45 18.3C40.7167 18.5 40.9167 18.7667 41.05 19.1L53.4 51.45C53.4667 51.65 53.5 51.8333 53.5 52C53.5 52.2667 53.4 52.5 53.2 52.7C53 52.9 52.7667 53 52.5 53H49.95C49.55 53 49.25 52.9 49.05 52.7C48.8833 52.5 48.7667 52.3167 48.7 52.15L45.95 45.05H29.55L26.8 52.15C26.7667 52.3167 26.65 52.5 26.45 52.7C26.25 52.9 25.95 53 25.55 53H23ZM31 40.75H44.5L37.75 23L31 40.75Z" fill="#8AFBD3"/>
</g>
</g>
<defs>
<clipPath id="clip0_1_3">
<rect width="100" height="100" fill="white"/>
</clipPath>
</defs>
</svg>
